<?xml version="1.0" encoding="utf-8"?>
<!-- Generator: Adobe Illustrator 22.1.0, SVG Export Plug-In . SVG Version: 6.00 Build 0)  -->
<svg version="1.1" id="Calque_1" xmlns="http://www.w3.org/2000/svg" xmlns:xlink="http://www.w3.org/1999/xlink" x="0px" y="0px"
	 viewBox="0 0 31.6 32.3" style="enable-background:new 0 0 31.6 32.3;" xml:space="preserve">
<style type="text/css">
	.st0{fill:#E52816;}
</style>
<path id="close_1_" class="st0" d="M19.1,15L29.5,4.6c0.9-0.9,0.9-2.3,0-3.1s-2.3-0.9-3.1,0L16,11.9L5.6,1.5c-0.9-0.9-2.3-0.9-3.1,0
	s-0.9,2.3,0,3.1L12.8,15L2.4,25.4c-0.9,0.9-0.9,2.3,0,3.1c0.4,0.4,1,0.6,1.6,0.6s1.1-0.2,1.6-0.6L16,18.1l10.4,10.4
	c0.4,0.4,1,0.6,1.6,0.6c0.6,0,1.1-0.2,1.6-0.6c0.9-0.9,0.9-2.3,0-3.1L19.1,15z"/>
</svg>
