<?xml version="1.0" encoding="utf-8"?>
<!-- Generator: Adobe Illustrator 22.1.0, SVG Export Plug-In . SVG Version: 6.00 Build 0)  -->
<svg version="1.1" id="Calque_1" xmlns="http://www.w3.org/2000/svg" xmlns:xlink="http://www.w3.org/1999/xlink" x="0px" y="0px"
	 viewBox="0 0 31.6 32.3" style="enable-background:new 0 0 31.6 32.3;" xml:space="preserve">
<style type="text/css">
	.st0{fill:none;stroke:#E8680F;stroke-width:0.25;stroke-miterlimit:10;}
</style>
<g id="settings_1_">
	<circle class="st0" cx="15.8" cy="15.8" r="5.6"/>
	<path class="st0" d="M30.3,13.4l-3.5-0.2c-0.3-1.2-0.7-2.3-1.4-3.3l2.4-2.6c0.2-0.2,0.2-0.6,0-0.8l-2.7-2.7c-0.2-0.2-0.6-0.2-0.8,0
		l-2.6,2.4c-1-0.6-2.1-1.1-3.3-1.4l-0.2-3.5c0-0.3-0.2-0.6-0.6-0.6h-3.8c-0.3,0-0.6,0.2-0.6,0.6l-0.2,3.5C12,5.2,10.9,5.6,9.9,6.3
		L7.3,3.9c-0.2-0.2-0.6-0.2-0.8,0L3.9,6.6c-0.2,0.2-0.2,0.6,0,0.8l2.4,2.6c-0.6,1-1.1,2.1-1.4,3.3l-3.5,0.2c-0.3,0-0.6,0.2-0.6,0.6
		v3.8c0,0.3,0.2,0.6,0.6,0.6l3.5,0.2c0.3,1.2,0.7,2.3,1.4,3.3l-2.4,2.6c-0.2,0.2-0.2,0.6,0,0.8l2.7,2.7c0.2,0.2,0.6,0.2,0.8,0
		l2.6-2.4c1,0.6,2.1,1.1,3.3,1.4l0.2,3.5c0,0.3,0.2,0.6,0.6,0.6h3.8c0.3,0,0.6-0.2,0.6-0.6l0.2-3.5c1.2-0.3,2.3-0.7,3.3-1.4l2.6,2.4
		c0.2,0.2,0.6,0.2,0.8,0l2.7-2.7c0.2-0.2,0.2-0.6,0-0.8l-2.4-2.6c0.6-1,1.1-2.1,1.4-3.3l3.5-0.2c0.3,0,0.6-0.2,0.6-0.6V14
		C30.8,13.7,30.6,13.4,30.3,13.4z"/>
</g>
</svg>
